<?xml version="1.0" encoding="UTF-8" standalone="no"?>
<!-- Created with Inkscape (http://www.inkscape.org/) -->
<svg
   xmlns:svg="http://www.w3.org/2000/svg"
   xmlns="http://www.w3.org/2000/svg"
   version="1.0"
   width="600pt"
   height="922pt"
   id="svg5901">
  <defs
     id="defs5904" />
  <g
     transform="matrix(3.917728,0,0,3.917728,-890.3037,-36.44593)"
     id="g6080">
    <path
       d="M 227.25,9.40625 L 227.65625,88.65625 C 227.98053,153.85165 228.31267,169.41368 229.5625,176.40625 C 232.15971,190.9371 233.84754,196.13876 242.46875,216.40625 C 245.86834,224.3983 255.82915,240.82256 262.1875,248.90625 C 272.77086,262.36142 295.87638,284.57731 312.78125,296.3125 L 322.9375,303.375 L 333.15625,296.3125 C 350.06112,284.57731 373.16663,262.36142 383.75,248.90625 C 390.10835,240.82256 400.06915,224.3983 403.46875,216.40625 C 412.08996,196.13876 413.77778,190.9371 416.375,176.40625 C 417.62483,169.41368 417.95696,153.85165 418.28125,88.65625 L 418.6875,9.40625 L 227.25,9.40625 z "
       style="fill:#101f77;fill-opacity:1"
       id="path5912" />
    <g
       id="g6063">
      <path
         d="M 263,13.34375 L 290.5,13.34375 L 290.5,34.875 L 263,34.875 L 263,13.34375 z "
         style="fill:#ffffff;fill-opacity:1"
         id="path5951" />
      <path
         d="M 263,38.875 L 291,38.875 L 291,48.875 L 263,48.875 L 263,38.875 z "
         style="fill:#ffffff;fill-opacity:1"
         id="path5947" />
      <path
         d="M 263,52.875 L 291,52.875 C 291,52.875 290.67961,269.15097 290.03125,271.3125 C 290.02337,271.33538 290.00797,271.36193 290,271.375 C 289.99733,271.37827 290.00268,271.40407 290,271.40625 C 289.99731,271.40734 289.97145,271.40625 289.96875,271.40625 C 289.95552,271.40529 289.92123,271.40912 289.90625,271.40625 C 287.9094,270.9258 272.19925,255.47762 267.375,249.21875 L 263,243.5625 L 263,52.875 z "
         style="fill:#ffffff;fill-opacity:1"
         id="path5943" />
      <path
         d="M 244.34375,137.40625 L 260.78125,143.59375 L 260.78125,157.84375 L 244.34375,151.3125 L 231.15625,157.84375 L 231.15625,143.59375 L 244.34375,137.40625 z "
         style="fill:#ffffff;fill-opacity:1"
         id="path5927" />
      <path
         d="M 244.34375,111.40625 L 260.78125,117.59375 L 260.78125,131.84375 L 244.34375,125.3125 L 231.15625,131.84375 L 231.15625,117.59375 L 244.34375,111.40625 z "
         style="fill:#ffffff;fill-opacity:1"
         id="path5956" />
      <path
         d="M 244.34375,81.40625 L 260.78125,87.59375 L 260.78125,101.84375 L 244.34375,95.3125 L 231.15625,101.84375 L 231.15625,87.59375 L 244.34375,81.40625 z "
         style="fill:#ffffff;fill-opacity:1"
         id="path5958" />
      <path
         d="M 309.78125,137.40625 L 293.34375,143.59375 L 293.34375,157.84375 L 309.78125,151.3125 L 322.96875,157.84375 L 336.15625,151.3125 L 352.59375,157.84375 L 352.59375,143.59375 L 336.15625,137.40625 L 322.96875,143.59375 L 309.78125,137.40625 z "
         style="fill:#ffffff;fill-opacity:1"
         id="path5960" />
      <path
         d="M 309.78125,111.40625 L 293.34375,117.59375 L 293.34375,131.84375 L 309.78125,125.3125 L 322.96875,131.84375 L 336.15625,125.3125 L 352.59375,131.84375 L 352.59375,117.59375 L 336.15625,111.40625 L 322.96875,117.59375 L 309.78125,111.40625 z "
         style="fill:#ffffff;fill-opacity:1"
         id="path5962" />
      <path
         d="M 309.78125,81.40625 L 293.34375,87.59375 L 293.34375,101.84375 L 309.78125,95.3125 L 322.96875,101.84375 L 336.15625,95.3125 L 352.59375,101.84375 L 352.59375,87.59375 L 336.15625,81.40625 L 322.96875,87.59375 L 309.78125,81.40625 z "
         style="fill:#ffffff;fill-opacity:1"
         id="path5964" />
      <path
         d="M 382.93745,13.34375 L 355.43745,13.34375 L 355.43745,34.875 L 382.93745,34.875 L 382.93745,13.34375 z "
         style="fill:#ffffff;fill-opacity:1"
         id="path5982" />
      <path
         d="M 382.93745,38.875 L 354.93745,38.875 L 354.93745,48.875 L 382.93745,48.875 L 382.93745,38.875 z "
         style="fill:#ffffff;fill-opacity:1"
         id="path5984" />
      <path
         d="M 382.93745,52.875 L 354.93745,52.875 C 354.93745,52.875 355.25784,269.15097 355.9062,271.3125 C 355.91408,271.33538 355.92948,271.36193 355.93745,271.375 C 355.94012,271.37827 355.93477,271.40407 355.93745,271.40625 C 355.94014,271.40734 355.966,271.40625 355.9687,271.40625 C 355.98193,271.40529 356.01622,271.40912 356.0312,271.40625 C 358.02805,270.9258 373.7382,255.47762 378.56245,249.21875 L 382.93745,243.5625 L 382.93745,52.875 z "
         style="fill:#ffffff;fill-opacity:1"
         id="path5986" />
      <path
         d="M 401.5937,137.40625 L 385.1562,143.59375 L 385.1562,157.84375 L 401.5937,151.3125 L 414.7812,157.84375 L 414.7812,143.59375 L 401.5937,137.40625 z "
         style="fill:#ffffff;fill-opacity:1"
         id="path5988" />
      <path
         d="M 401.5937,111.40625 L 385.1562,117.59375 L 385.1562,131.84375 L 401.5937,125.3125 L 414.7812,131.84375 L 414.7812,117.59375 L 401.5937,111.40625 z "
         style="fill:#ffffff;fill-opacity:1"
         id="path5990" />
      <path
         d="M 401.5937,81.40625 L 385.1562,87.59375 L 385.1562,101.84375 L 401.5937,95.3125 L 414.7812,101.84375 L 414.7812,87.59375 L 401.5937,81.40625 z "
         style="fill:#ffffff;fill-opacity:1"
         id="path5992" />
    </g>
  </g>
</svg>
